<svg width="100" height="100" viewBox="0 0 100 100" fill="none" xmlns="http://www.w3.org/2000/svg">
<g clip-path="url(#clip0_4_4)">
<path d="M50 0L100 14L92 80L50 100L8 80L0 14L50 0Z" fill="#B2B2B2"/>
<path d="M50 5L6 18L13.5 77L50 94V5Z" fill="#E42939"/>
<path d="M50 5L94 18L86.5 77L50 94V5Z" fill="#B72833"/>
<path d="M50 7L83 75H72L65 59H50V50H61L50 26V7Z" fill="#B2B2B2"/>
<path d="M50 7L17 75H28L35 59H50V50H39L50 26V7Z" fill="white"/>
</g>
<defs>
<clipPath id="clip0_4_4">
<rect width="100" height="100" fill="white"/>
</clipPath>
</defs>
</svg>
